# xmcd
#
# Track frame offsets:
#	150
#	14961
#	29211
#	45798
#	62874
#	78348
#	92304
#	109828
#	125150
#	141101
#	154295
#	168143
#	181499
#	194834
#	211788
#
# Disc length: 3023 seconds
#
# Revision: 1
# Processed by: cddbd v1.5.2PL0 Copyright (c) Steve Scherf et al.
# Submitted via: audiograbber 1.83.01
#
DISCID=d50bcd0f
DTITLE=Jason Aldean - Old Boots New Dirt
DYEAR=2014
DGENRE=Country
TTITLE0=Just Getting Started
TTITLE1=Show You Off
TTITLE2=Burnin It Down
TTITLE3=Tryin to Love Me
TTITLE4=Sweet Little Somethin
TTITLE5=Laid Back
TTITLE6=Tonight Looks Good on You
TTITLE7=Too Fast
TTITLE8=If My Truck Could Talk
TTITLE9=Old Boots New Dirt
TTITLE10=I Took it With Me
TTITLE11=Don't Change Gone
TTITLE12=Miss That Girl
TTITLE13=Gonna Know We Were Here
TTITLE14=Two Night Town
EXTD=
EXTT0=
EXTT1=
EXTT2=
EXTT3=
EXTT4=
EXTT5=
EXTT6=
EXTT7=
EXTT8=
EXTT9=
EXTT10=
EXTT11=
EXTT12=
EXTT13=
EXTT14=
PLAYORDER=
